<?xml version="1.0" standalone="no"?>
<!DOCTYPE svg PUBLIC "-//W3C//DTD SVG 20010904//EN"
 "http://www.w3.org/TR/2001/REC-SVG-20010904/DTD/svg10.dtd">
<svg version="1.0" xmlns="http://www.w3.org/2000/svg"
 width="445.000000pt" height="120.000000pt" viewBox="0 0 445.000000 120.000000"
 preserveAspectRatio="xMidYMid meet">

<g transform="translate(0.000000,120.000000) scale(0.100000,-0.100000)"
fill="#000000" stroke="none">
<path d="M0 600 l0 -600 2225 0 2225 0 0 600 0 600 -2225 0 -2225 0 0 -600z
m973 403 c12 -12 -15 -33 -43 -33 -39 0 -122 -58 -142 -100 -37 -76 12 -144
126 -175 36 -10 66 -22 66 -27 0 -17 -33 -21 -88 -8 -42 9 -66 22 -100 55 -41
38 -46 47 -50 97 -5 65 12 104 63 145 53 42 147 68 168 46z m67 -79 l5 -79 87
-3 87 -3 3 83 c2 66 6 83 18 83 13 0 15 -31 18 -209 1 -138 -1 -213 -8 -220
-20 -20 -30 18 -30 122 l0 102 -90 0 -90 0 0 -115 c0 -95 -3 -115 -15 -115 -8
0 -17 11 -21 25 -5 19 0 393 5 413 1 2 7 2 14 0 7 -3 14 -33 17 -84z m2454 70
c3 -9 6 -78 6 -154 0 -159 -6 -150 101 -150 64 0 69 -2 69 -21 0 -21 -3 -22
-94 -17 -51 3 -98 8 -105 12 -12 8 -16 327 -4 339 11 11 20 8 27 -9z m-3084
-9 c0 -5 -12 -11 -27 -13 -79 -7 -72 10 -75 -205 -3 -163 -5 -192 -18 -192
-13 0 -15 28 -18 185 -3 205 -4 210 -69 210 -23 0 -33 5 -33 15 0 13 18 15
120 13 71 -2 120 -7 120 -13z m288 3 c-3 -8 -28 -14 -64 -16 -32 -2 -63 -7
-68 -12 -5 -5 9 -35 33 -70 22 -34 41 -71 41 -82 0 -12 -36 -56 -91 -109 l-91
-89 203 -2 c185 -3 204 -5 207 -20 3 -17 -13 -18 -232 -18 -142 0 -237 4 -241
10 -11 18 14 48 104 124 50 42 93 85 96 96 7 23 -5 48 -56 116 -61 79 -57 84
62 84 76 0 100 -3 97 -12z m1241 -21 c23 -15 47 -44 61 -71 12 -25 28 -46 35
-46 26 0 26 -20 2 -29 -17 -7 -28 -21 -32 -41 -18 -81 -128 -144 -209 -120
-48 14 -105 71 -113 112 -3 18 -15 34 -29 40 -29 13 -31 25 -5 33 10 3 25 20
32 37 18 44 58 88 94 104 44 21 117 12 164 -19z m274 13 c38 -30 46 -83 18
-121 -12 -16 -17 -29 -11 -29 6 0 22 -11 35 -25 57 -56 13 -137 -82 -150 -96
-13 -93 -18 -93 176 l0 169 54 0 c39 0 60 -6 79 -20z m364 9 c38 -14 81 -56
104 -101 11 -21 26 -38 34 -38 8 0 15 -7 15 -15 0 -8 -8 -15 -18 -15 -13 0
-22 -12 -30 -38 -16 -51 -73 -107 -126 -122 -82 -23 -162 22 -200 114 -8 19
-24 37 -35 41 -27 8 -27 21 2 29 14 4 31 26 47 59 20 41 35 57 70 75 48 24 93
28 137 11z m423 -4 c0 -10 -10 -15 -34 -15 -68 0 -66 7 -66 -200 0 -128 -4
-191 -11 -196 -23 -14 -29 26 -29 198 0 197 0 198 -69 198 -21 0 -31 5 -31 15
0 13 20 15 120 15 100 0 120 -2 120 -15z m221 5 c25 -14 26 -45 2 -34 -10 4
-39 9 -65 12 -41 3 -48 1 -63 -22 -16 -24 -16 -28 -1 -51 9 -14 34 -34 55 -44
73 -38 101 -69 101 -112 0 -48 -25 -75 -76 -85 -43 -8 -115 13 -122 34 -3 11
7 12 51 7 64 -8 93 -1 107 26 16 30 -3 54 -72 91 -60 32 -98 75 -98 111 0 10
13 32 29 48 25 24 37 29 81 29 28 0 60 -5 71 -10z m727 -2 c-3 -8 -28 -14 -64
-16 -32 -2 -63 -7 -67 -11 -5 -5 7 -32 27 -61 64 -93 60 -107 -59 -218 -36
-34 -65 -64 -65 -67 0 -3 87 -5 193 -5 186 0 227 -6 213 -29 -9 -15 -462 -16
-471 -1 -13 22 9 51 96 125 50 42 93 83 96 92 8 20 -20 76 -64 129 -52 65 -43
74 73 74 72 0 95 -3 92 -12z m247 -19 c128 -64 123 -235 -9 -295 -28 -12 -76
-26 -107 -29 -86 -11 -89 -5 -89 175 0 82 3 156 7 165 10 26 133 16 198 -16z
m-2799 -43 c43 -48 62 -62 77 -58 17 4 19 1 14 -24 -4 -22 2 -39 26 -71 18
-23 37 -41 42 -39 6 2 9 47 7 117 -3 111 4 149 27 135 17 -11 15 -336 -2 -336
-14 0 -59 45 -102 102 -22 31 -32 37 -51 32 -25 -7 -34 12 -14 32 7 7 -2 24
-26 52 -19 23 -40 42 -44 42 -5 0 -11 -57 -12 -127 -3 -106 -6 -128 -18 -128
-13 0 -15 25 -18 155 -1 85 0 160 2 167 10 26 36 12 92 -51z m-291 -575 c-45
-5 -50 -8 -50 -31 0 -19 6 -26 30 -31 l30 -7 -33 -1 c-29 -1 -33 -4 -30 -23 2
-19 11 -24 53 -29 l50 -6 -57 -1 -58 -2 0 70 0 70 58 -2 57 -1 -50 -6z m383
-63 c0 -40 -3 -59 -5 -41 -3 23 -12 34 -34 43 -16 7 -31 11 -33 9 -2 -2 -13
-20 -25 -39 -31 -51 -26 -29 9 40 27 53 34 60 60 60 l30 0 -2 -72z m150 65
c-43 -4 -48 -7 -48 -29 0 -19 5 -24 28 -25 l27 -2 -27 -4 c-23 -4 -27 -10 -31
-41 -2 -20 -4 -4 -5 36 l-2 72 53 -2 52 -2 -47 -3z m69 -90 c-2 -21 -4 -6 -4
32 0 39 2 55 4 38 2 -18 2 -50 0 -70z m88 88 c-45 -5 -50 -8 -50 -31 0 -19 6
-26 30 -31 l30 -7 -32 -1 c-28 -1 -33 -5 -33 -25 0 -23 4 -25 53 -29 l52 -3
-57 -2 -58 -2 0 70 0 70 58 -2 57 -1 -50 -6z m133 2 c-61 -4 -73 -17 -42 -47
8 -9 11 -16 5 -16 -12 0 -31 33 -31 54 0 13 12 16 63 14 l62 -2 -57 -3z m185
0 l-33 -4 -2 -67 -1 -67 -6 65 c-6 62 -7 65 -36 71 -19 4 -4 6 40 6 39 0 55
-2 38 -4z m176 -65 c-1 -40 -4 -61 -6 -46 -4 28 -36 58 -60 58 -7 0 -22 -18
-33 -40 -11 -22 -23 -40 -25 -40 -3 0 11 32 30 70 32 63 38 70 65 70 l30 0 -1
-72z m165 51 c46 -36 30 -100 -30 -115 -45 -11 -54 0 -54 71 0 65 0 65 29 65
15 0 40 -9 55 -21z m109 14 c-51 -4 -53 -5 -53 -34 0 -26 4 -29 33 -31 l32 -1
-32 -4 c-27 -4 -33 -9 -33 -28 0 -22 5 -24 53 -28 l52 -3 -57 -2 -58 -2 0 70
0 70 58 -2 57 -2 -52 -3z m320 0 c-49 -4 -53 -6 -53 -29 0 -19 5 -24 28 -25
l27 -1 -25 -7 c-19 -5 -27 -16 -31 -41 -5 -25 -7 -15 -8 38 l-1 72 58 -2 57
-2 -52 -3z m177 -63 l0 -70 -55 0 -55 0 2 68 2 67 3 -62 4 -63 44 0 45 0 0 65
c0 36 2 65 5 65 3 0 5 -31 5 -70z m123 63 l-33 -4 -2 -67 -1 -67 -6 65 c-6 62
-7 65 -36 71 -19 4 -4 6 40 6 39 0 55 -2 38 -4z m104 -121 l42 -3 4 63 3 63 2
-67 2 -68 -55 0 -55 0 2 73 1 72 6 -65 6 -65 42 -3z m183 113 c0 -9 -12 -27
-26 -42 -22 -22 -23 -27 -11 -42 8 -9 17 -23 21 -31 5 -8 -4 0 -19 18 -14 17
-35 32 -45 32 -14 0 -20 -9 -23 -32 -2 -18 -5 0 -5 40 l-2 72 55 0 c43 0 55
-3 55 -15z m124 -6 c26 -20 35 -61 18 -85 -9 -14 -47 -34 -64 -34 -7 1 1 7 19
15 53 23 54 94 3 110 -53 17 -91 -55 -52 -98 13 -16 14 -19 2 -15 -39 12 -37
97 2 116 33 15 42 14 72 -9z m-2780 -51 c21 35 40 61 43 58 9 -8 -69 -126 -83
-126 -11 0 -14 16 -12 68 l1 67 6 -65 6 -65 39 63z m73 -30 c-2 -18 -4 -4 -4
32 0 36 2 50 4 33 2 -18 2 -48 0 -65z m42 -21 c4 -4 24 19 45 53 44 71 60 81
21 13 -59 -103 -86 -106 -83 -10 l2 62 3 -55 c2 -30 8 -59 12 -63z m369 -10
l47 -3 -52 -2 -53 -2 2 68 2 67 3 -62 4 -62 47 -4z m1395 0 l52 -3 -57 -2 -58
-2 2 68 2 67 3 -62 4 -62 52 -4z m-713 44 c23 -44 14 -51 -57 -49 l-68 2 63 3
c43 3 62 8 62 17 0 18 -20 33 -50 39 -21 4 -20 4 7 6 23 1 35 -5 43 -18z"/>
<path d="M1781 943 c-32 -16 -71 -65 -71 -90 0 -6 9 -15 20 -18 23 -7 27 -25
5 -25 -26 0 -16 -41 18 -75 57 -57 110 -58 172 -4 47 42 55 76 24 100 l-24 19
23 6 c26 7 26 7 7 44 -29 57 -107 76 -174 43z"/>
<path d="M2115 957 c-4 -8 -5 -36 -3 -63 3 -47 4 -49 32 -47 38 3 66 30 66 63
0 33 -16 48 -58 56 -23 5 -33 2 -37 -9z"/>
<path d="M2112 753 l3 -58 38 -3 c52 -4 87 19 87 58 0 38 -32 60 -88 60 l-43
0 3 -57z"/>
<path d="M2460 942 c-31 -15 -80 -72 -80 -92 0 -4 11 -11 25 -14 30 -8 33 -26
5 -26 -25 0 -25 -16 0 -58 21 -34 72 -62 113 -62 34 0 102 53 115 88 11 32 6
45 -21 55 -20 8 -14 27 9 27 17 0 18 29 1 50 -40 51 -105 63 -167 32z"/>
<path d="M4037 953 c-9 -8 -7 -211 2 -243 6 -22 13 -25 48 -23 52 2 117 35
140 70 10 15 18 46 18 69 0 49 -27 84 -87 115 -36 18 -108 26 -121 12z"/>
<path d="M1431 331 c-8 -15 -6 -20 15 -30 34 -15 34 -15 34 19 0 23 -4 30 -20
30 -10 0 -24 -8 -29 -19z"/>
<path d="M2231 332 c-8 -16 -6 -21 15 -31 34 -15 36 -15 32 16 -4 33 -32 42
-47 15z"/>
<path d="M2384 336 c-3 -7 -4 -33 -2 -57 2 -36 7 -45 25 -47 26 -4 63 30 63
58 0 42 -72 81 -86 46z"/>
<path d="M3370 320 c0 -35 21 -40 58 -14 36 25 28 44 -18 44 -38 0 -40 -2 -40
-30z"/>
</g>
</svg>
